<svg width="18" height="19" viewBox="0 0 18 19" fill="none" xmlns="http://www.w3.org/2000/svg">
<path d="M17.7385 9.85812C17.7385 4.85208 13.9174 0.796387 9.20813 0.796387C4.49562 0.796387 0.677734 4.85208 0.677734 9.85812C0.677734 14.3799 3.79613 18.1292 7.87525 18.8083V12.4781H5.70907V9.85868H7.87525V7.86114C7.87525 5.59061 9.14682 4.33669 11.096 4.33669C12.0296 4.33669 13.0068 4.51339 13.0068 4.51339V6.74315H11.9293C10.8716 6.74315 10.541 7.4426 10.541 8.15904V9.85812H12.9066L12.5265 12.4775H10.541V18.8077C14.6169 18.1286 17.7385 14.3794 17.7385 9.85755V9.85812Z" fill="white"/>
</svg>
