<svg width="18" height="19" viewBox="0 0 18 19" fill="none" xmlns="http://www.w3.org/2000/svg">
<path d="M17.2644 9.06173C17.2644 4.05569 13.4433 0 8.73401 0C4.0215 0 0.203613 4.05569 0.203613 9.06173C0.203613 13.5835 3.32201 17.3328 7.40113 18.0119V11.6817H5.23495V9.06229H7.40113V7.06475C7.40113 4.79422 8.67269 3.5403 10.6219 3.5403C11.5554 3.5403 12.5327 3.71701 12.5327 3.71701V5.94676H11.4552C10.3974 5.94676 10.0669 6.64621 10.0669 7.36265V9.06173H12.4325L12.0523 11.6811H10.0669V18.0113C14.1428 17.3323 17.2644 13.583 17.2644 9.06116V9.06173Z" fill="black"/>
</svg>
