<svg width="20" height="18" viewBox="0 0 20 18" fill="none" xmlns="http://www.w3.org/2000/svg">
<path d="M10.0107 4.88505C7.30525 4.88505 5.12302 6.84985 5.12302 9.28575C5.12302 11.7216 7.30525 13.6864 10.0107 13.6864C12.7162 13.6864 14.8984 11.7216 14.8984 9.28575C14.8984 6.84985 12.7162 4.88505 10.0107 4.88505ZM10.0107 12.1468C8.26237 12.1468 6.83307 10.8637 6.83307 9.28575C6.83307 7.70778 8.25811 6.42472 10.0107 6.42472C11.7633 6.42472 13.1883 7.70778 13.1883 9.28575C13.1883 10.8637 11.759 12.1468 10.0107 12.1468ZM16.2384 4.70503C16.2384 5.27571 15.7279 5.73148 15.0983 5.73148C14.4645 5.73148 13.9583 5.27188 13.9583 4.70503C13.9583 4.13819 14.4688 3.67859 15.0983 3.67859C15.7279 3.67859 16.2384 4.13819 16.2384 4.70503ZM19.4755 5.7468C19.4032 4.37182 19.0544 3.15387 17.9356 2.15041C16.8211 1.14694 15.4684 0.832877 13.9413 0.763936C12.3673 0.683506 7.64981 0.683506 6.07588 0.763936C4.553 0.829047 3.20027 1.14311 2.08151 2.14658C0.96274 3.15004 0.618177 4.36799 0.541608 5.74297C0.452277 7.16008 0.452277 11.4076 0.541608 12.8247C0.613923 14.1997 0.96274 15.4176 2.08151 16.4211C3.20027 17.4246 4.54875 17.7386 6.07588 17.8076C7.64981 17.888 12.3673 17.888 13.9413 17.8076C15.4684 17.7424 16.8211 17.4284 17.9356 16.4211C19.0502 15.4176 19.399 14.1997 19.4755 12.8247C19.5649 11.4076 19.5649 7.16391 19.4755 5.7468ZM17.4422 14.3452C17.1104 15.0959 16.4681 15.6742 15.6301 15.9768C14.3752 16.4249 11.3975 16.3215 10.0107 16.3215C8.62395 16.3215 5.64199 16.4211 4.39135 15.9768C3.5576 15.6781 2.91526 15.0997 2.57921 14.3452C2.08151 13.2154 2.19636 10.5343 2.19636 9.28575C2.19636 8.03716 2.08576 5.35231 2.57921 4.22628C2.91101 3.4756 3.55334 2.89726 4.39135 2.59469C5.64624 2.14658 8.62395 2.24999 10.0107 2.24999C11.3975 2.24999 14.3794 2.15041 15.6301 2.59469C16.4638 2.89343 17.1061 3.47177 17.4422 4.22628C17.9399 5.35614 17.825 8.03716 17.825 9.28575C17.825 10.5343 17.9399 13.2192 17.4422 14.3452Z" fill="white"/>
</svg>
