<svg width="19" height="14" viewBox="0 0 19 14" fill="none" xmlns="http://www.w3.org/2000/svg">
<path fill-rule="evenodd" clip-rule="evenodd" d="M18.228 1.52892C18.3536 1.02645 18.228 0.657227 17.6304 0.657227H15.6541C15.1516 0.657227 14.92 0.976179 14.7943 1.32788C14.7943 1.32788 13.7893 4.2673 12.3656 6.17661C11.905 6.72933 11.6956 6.90523 11.4444 6.90523C11.3188 6.90523 11.1303 6.72933 11.1303 6.22691V1.52892C11.1303 0.925955 10.9911 0.657227 10.5723 0.657227H7.46677C7.15276 0.657227 6.96391 0.937072 6.96391 1.2023C6.96391 1.77389 7.67573 1.90572 7.7491 3.51361V7.00574C7.7491 7.77132 7.63387 7.91017 7.38262 7.91017C6.71266 7.91017 5.08298 4.95763 4.11643 1.57914C3.92701 0.922479 3.73703 0.657227 3.23196 0.657227H1.2557C0.69106 0.657227 0.578125 0.976179 0.578125 1.32788C0.578125 1.95599 1.24812 5.07125 3.69772 9.19142C5.33078 12.0051 7.63165 13.5304 9.72533 13.5304C10.9816 13.5304 11.137 13.1917 11.137 12.6082V10.4815C11.137 9.804 11.256 9.66874 11.6538 9.66874C11.9469 9.66874 12.4494 9.84464 13.6218 11.2013C14.9618 12.8092 15.1827 13.5304 15.9364 13.5304H17.9127C18.4773 13.5304 18.7596 13.1917 18.5967 12.5231C18.4185 11.8568 17.7788 10.8901 16.9299 9.74414C16.4693 9.09092 15.7783 8.38749 15.5689 8.03568C15.2758 7.58356 15.3596 7.38255 15.5689 6.98063C15.5689 6.98063 17.9768 2.91065 18.228 1.52892Z" fill="white"/>
</svg>
