<svg width="19" height="14" viewBox="0 0 19 14" fill="none" xmlns="http://www.w3.org/2000/svg">
<path fill-rule="evenodd" clip-rule="evenodd" d="M17.7534 1.73204C17.8789 1.22957 17.7534 0.860352 17.1558 0.860352H15.1795C14.677 0.860352 14.4454 1.1793 14.3197 1.53101C14.3197 1.53101 13.3147 4.47043 11.891 6.37974C11.4304 6.93246 11.221 7.10836 10.9698 7.10836C10.8441 7.10836 10.6557 6.93246 10.6557 6.43003V1.73204C10.6557 1.12908 10.5165 0.860352 10.0977 0.860352H6.99216C6.67815 0.860352 6.4893 1.1402 6.4893 1.40542C6.4893 1.97702 7.20112 2.10884 7.27449 3.71674V7.20886C7.27449 7.97445 7.15926 8.1133 6.90801 8.1133C6.23805 8.1133 4.60837 5.16075 3.64182 1.78227C3.4524 1.1256 3.26242 0.860352 2.75735 0.860352H0.781094C0.216451 0.860352 0.103516 1.1793 0.103516 1.53101C0.103516 2.15911 0.773509 5.27438 3.22311 9.39455C4.85617 12.2083 7.15704 13.7336 9.25072 13.7336C10.5069 13.7336 10.6624 13.3948 10.6624 12.8113V10.6846C10.6624 10.0071 10.7814 9.87187 11.1792 9.87187C11.4723 9.87187 11.9747 10.0478 13.1472 11.4044C14.4872 13.0123 14.7081 13.7336 15.4618 13.7336H17.4381C18.0027 13.7336 18.285 13.3948 18.1221 12.7262C17.9439 12.0599 17.3042 11.0933 16.4553 9.94727C15.9947 9.29405 15.3037 8.59062 15.0943 8.23881C14.8012 7.78668 14.885 7.58568 15.0943 7.18376C15.0943 7.18376 17.5021 3.11378 17.7534 1.73204Z" fill="black"/>
</svg>
