<svg width="177" height="40" viewBox="0 0 177 40" fill="none" xmlns="http://www.w3.org/2000/svg">
<g filter="url(#filter0_d_523_11)">
<path d="M20.9922 0.0133362C19.0999 0.212323 18.4956 0.333445 17.2369 0.766025C16.2886 1.09479 15.8858 1.26349 15.1305 1.65281C14.0815 2.19354 13.5025 2.56123 12.6423 3.2274C12.2269 3.54751 12.1556 3.6124 11.6017 4.11419C9.55826 5.97861 7.93023 8.61735 7.14139 11.3383C7.04069 11.693 6.96096 11.9915 6.96936 11.9958C6.97775 12.0088 8.75264 12.0218 8.996 12.0131C9.02118 12.0131 9.05475 11.9525 9.07153 11.8747C9.12188 11.6151 9.7261 10.0189 9.81422 9.91941C9.831 9.89779 9.96527 9.99295 10.1121 10.1271C10.3681 10.365 11.7444 11.3556 12.2688 11.68C12.4115 11.7709 12.6297 11.8877 12.7514 11.9439L12.978 12.0477L15.4746 12.0737C16.8466 12.0866 19.2467 12.1039 20.8034 12.1039L23.6357 12.1083L23.6609 11.3772C23.6818 10.7327 24.5126 2.59584 24.563 2.54393C24.584 2.51797 25.0078 2.89864 25.2931 3.20578C26.0022 3.96279 27.3449 6.08243 27.7687 7.12495C27.8358 7.28068 28.0414 7.88196 28.2261 8.46595C28.5534 9.48251 28.7338 10.2006 28.7338 10.5077C28.7338 10.5856 28.759 10.7846 28.7925 10.9533C28.8261 11.1177 28.8681 11.4334 28.8848 11.6497C28.8974 11.8704 28.9268 12.0737 28.9478 12.1039C28.9771 12.1559 29.6611 12.1688 32.9927 12.1775C36.9621 12.1948 36.9998 12.1948 36.9998 12.1083C36.9998 12.0607 36.9537 11.8617 36.8991 11.6627C36.1019 8.83797 34.7214 6.46743 32.6948 4.44295C30.2779 2.03348 27.1561 0.515129 23.7616 0.0912005C23.2455 0.0306394 21.3615 -0.025596 20.9922 0.0133362ZM22.3559 2.31034C22.3559 2.33196 22.2636 3.24038 22.1461 4.33481C22.0328 5.42924 21.8314 7.32826 21.7056 8.55246C21.437 11.1739 21.3447 11.9482 21.3069 12.0174C21.2818 12.052 21.1223 12.0347 20.7111 11.9525C20.4006 11.892 19.9013 11.8184 19.6034 11.7968C18.2649 11.6843 17.5851 11.5632 16.4228 11.2172L16.2592 11.1696L16.2844 10.8624C16.3389 10.2482 16.7837 8.97206 17.4047 7.66567C18.4033 5.56334 19.7922 3.97144 21.8314 2.58719C22.2636 2.28871 22.3559 2.24112 22.3559 2.31034ZM18.2103 2.74292C18.097 2.88134 17.9502 3.0414 17.8872 3.10196C17.8243 3.16252 17.5096 3.54751 17.1907 3.95414C16.6075 4.7025 16.1795 5.32974 15.8648 5.8921C15.7725 6.05648 15.5417 6.46743 15.3529 6.80051C14.9962 7.44073 14.0815 9.48251 13.9179 10.0103C13.8633 10.1833 13.8046 10.326 13.7836 10.326C13.6955 10.326 13.129 9.9843 12.7052 9.6815C11.5304 8.83364 11.2912 8.62168 11.1024 8.26263L10.9891 8.05067L11.2618 7.67C12.0171 6.61883 14.0312 4.75874 15.3277 3.91953C15.7263 3.65998 16.662 3.16252 17.1529 2.95055C17.5222 2.7905 18.2942 2.50067 18.3614 2.50067C18.3949 2.49634 18.3236 2.60882 18.2103 2.74292ZM29.4261 4.12284C29.4723 4.15312 29.5856 4.23964 29.6779 4.31318C29.7702 4.38239 29.9086 4.47323 29.9842 4.50784C30.0555 4.54245 30.1184 4.59436 30.1184 4.61599C30.1184 4.63761 30.1814 4.68952 30.2569 4.72846C30.3282 4.76739 30.4164 4.8366 30.4457 4.87986C30.4751 4.92744 30.5255 4.96205 30.5506 4.96205C30.58 4.96205 30.7017 5.05722 30.8234 5.17834C30.945 5.29514 31.0583 5.39463 31.0793 5.39463C31.1003 5.39463 31.1465 5.44221 31.1842 5.49845C31.2178 5.55901 31.2849 5.61524 31.3311 5.63255C31.3772 5.64553 31.4276 5.69744 31.4402 5.74069C31.4528 5.78395 31.5031 5.83586 31.5493 5.84884C31.5912 5.86614 31.629 5.8921 31.629 5.9094C31.629 5.9267 31.8094 6.13002 32.0276 6.36361C32.2458 6.59288 32.4262 6.79619 32.4262 6.81349C32.4262 6.83079 32.5017 6.91731 32.5899 7.00383C32.678 7.08602 32.7661 7.19849 32.7787 7.24607C32.7955 7.29365 32.8332 7.34556 32.8668 7.35854C32.9004 7.37152 32.9297 7.40613 32.9297 7.44073C32.9297 7.47101 32.9969 7.57051 33.0766 7.66135C33.1563 7.75219 33.2235 7.83438 33.2235 7.84736C33.2235 7.85601 33.3074 7.99011 33.4123 8.14584C33.5172 8.29724 33.6011 8.44432 33.6011 8.46595C33.6011 8.4919 33.6305 8.52218 33.664 8.53516C33.6976 8.55246 33.727 8.59572 33.727 8.6433C33.727 8.68656 33.7647 8.7428 33.8109 8.76875C33.857 8.79471 33.8948 8.85094 33.8948 8.8942C33.8948 8.93746 33.9326 9.02397 33.9787 9.08454C34.0249 9.1451 34.0626 9.22296 34.0626 9.25757C34.0626 9.2965 34.0794 9.33543 34.1004 9.34841C34.1466 9.37869 34.3564 9.78964 34.3564 9.85453C34.3564 9.88048 34.3899 9.9497 34.4361 10.0059C34.478 10.0622 34.5284 10.179 34.541 10.2655C34.5662 10.3909 34.5494 10.4558 34.4361 10.6332C34.3648 10.75 34.2515 10.8841 34.1885 10.9317C33.9997 11.0701 33.3997 11.3642 33.3074 11.3642C33.2612 11.3642 33.1521 11.3945 33.064 11.4334C32.8332 11.5329 31.3395 11.9266 31.3185 11.892C31.3101 11.8747 31.2891 11.7536 31.2723 11.6238C31.2136 11.1479 30.8318 9.12347 30.7059 8.61735C30.3954 7.37152 30.1268 6.54097 29.7534 5.65418C29.4513 4.94042 29.1114 4.08824 29.1114 4.04498C29.1114 3.9974 29.3212 4.04931 29.4261 4.12284Z" fill="white"/>
<path d="M5.5525 13.4194C4.76366 13.627 4.32309 14.2932 4.07553 15.6515C4.02098 15.9759 4.0042 16.3047 4 17.291C4 18.9132 4.09231 19.5404 4.44897 20.319C4.74268 20.9549 5.12032 21.2448 5.79167 21.3529C6.05602 21.3962 15.413 21.4567 30.7702 21.513C38.9733 21.5432 38.7551 21.5476 39.1831 21.3442C39.7873 21.0544 40.2069 20.1849 40.3538 18.9391C40.4251 18.3292 40.4167 16.5642 40.337 16.0019C40.1985 15.0286 39.9593 14.4057 39.5649 13.999C39.2754 13.7006 38.9817 13.5794 38.4488 13.5275C38.2432 13.5059 35.1256 13.4799 31.5255 13.467C27.9253 13.4497 24.3756 13.4324 23.6371 13.4194C22.8986 13.4064 18.5851 13.3891 14.0493 13.3761C6.78611 13.3588 5.77489 13.3631 5.5525 13.4194ZM17.855 15.6645C18.5138 15.9716 18.8831 16.7805 18.7572 17.6241C18.6103 18.5844 18.0523 19.1121 17.1837 19.1165C16.5039 19.1165 16.0676 18.8526 15.7948 18.2729C15.5934 17.849 15.5263 17.3948 15.5976 17.0011C15.7151 16.3782 15.9123 16.0235 16.2606 15.7899C16.7221 15.4871 17.3599 15.4352 17.855 15.6645ZM27.3589 15.6039C28.0177 15.8116 28.3869 16.3609 28.4331 17.1872C28.4666 17.8404 28.282 18.3768 27.9002 18.7271C27.3337 19.2462 26.4358 19.2635 25.8106 18.7747C25.2148 18.3075 25.0595 16.9752 25.5127 16.2441C25.8945 15.6255 26.6288 15.3703 27.3589 15.6039ZM37.5131 15.6558C37.6348 15.7164 37.7942 15.8159 37.8698 15.8808C38.0208 16.0105 38.26 16.4734 38.26 16.6291C38.26 16.7243 38.2474 16.7286 37.9243 16.7286H37.5886L37.5215 16.5556C37.4334 16.3306 37.3033 16.2268 37.0306 16.1663C36.6152 16.0668 36.2921 16.2398 36.1158 16.6508C36.0026 16.9233 35.9774 17.5289 36.0739 17.862C36.1956 18.3032 36.5564 18.5498 36.9802 18.4806C37.2152 18.446 37.4753 18.2253 37.5467 18.0004L37.597 17.8533H37.9285C38.3103 17.8533 38.3061 17.849 38.1719 18.2167C37.9411 18.8569 37.3075 19.216 36.5942 19.1078C35.7928 18.991 35.327 18.3594 35.3144 17.3688C35.3018 16.4301 35.7004 15.7813 36.4096 15.5736C36.7075 15.4871 37.2404 15.526 37.5131 15.6558ZM8.4645 17.2347C8.7708 18.1345 9.03095 18.9132 9.04354 18.9694C9.06452 19.0689 9.06452 19.0689 8.69527 19.0559L8.32183 19.0429L8.21694 18.6839L8.11623 18.3292L7.48684 18.3378L6.86164 18.3508L6.74835 18.6969L6.63506 19.0429L6.32876 19.0559C5.89238 19.0732 5.89238 19.0732 6.00986 18.7531C6.06441 18.6017 6.31197 17.8879 6.55953 17.1612C6.80709 16.4345 7.02948 15.7899 7.05046 15.7207C7.09242 15.6039 7.09242 15.6039 7.49943 15.6039H7.90224L8.4645 17.2347ZM11.7541 15.7294C12.2241 15.9716 12.3458 16.694 11.9723 17.0574L11.8338 17.1915L11.9555 17.265C12.1821 17.4034 12.2954 17.6414 12.2996 17.9701C12.308 18.4849 12.0646 18.8266 11.5737 18.9824C11.494 19.0083 11.0072 19.0429 10.4953 19.0516L9.55964 19.0732V17.3342V15.5996L10.5583 15.6126C11.5066 15.6255 11.5611 15.6299 11.7541 15.7294ZM15.3081 15.9067V16.2095H14.8046H14.3011L14.2927 17.6241L14.2801 19.0429H13.9444H13.6087L13.5962 17.6241L13.5878 16.2095H13.0842H12.5807V15.9067V15.6039H13.9444H15.3081V15.9067ZM21.602 15.9067V16.2095H20.8258H20.0495V17.637V19.0646H19.7139H19.3782V17.3342V15.6039H20.4901H21.602V15.9067ZM24.749 17.3342V19.0646H24.4133H24.0776V17.637V16.2095H23.5741H23.0706V16.9536C23.0664 18.5628 22.844 19.1078 22.1895 19.1078C21.8454 19.1078 21.8118 19.0732 21.8118 18.7055V18.3941H22.0048C22.1643 18.3941 22.2146 18.3724 22.2776 18.2859C22.3909 18.1302 22.4412 17.6068 22.4412 16.521V15.6039H23.5951H24.749V17.3342ZM31.4625 15.9067V16.2095H30.6024H29.7422V16.5729V16.9363L30.4052 16.9492C31.0513 16.9665 31.0681 16.9709 31.2947 17.1006C31.6178 17.2866 31.7562 17.5635 31.7562 18.0004C31.7521 18.4806 31.5716 18.7877 31.1898 18.9607C31.0513 19.0256 30.8583 19.0429 30.0485 19.0559L29.0708 19.0732V17.3386V15.6039H30.2667H31.4625V15.9067ZM32.9269 15.6991C33.0822 16.123 33.6193 17.3775 33.6444 17.3775C33.6612 17.3775 33.8165 16.9838 33.9885 16.4994L34.3032 15.6255L34.664 15.6126C34.8655 15.6082 35.0291 15.6126 35.0291 15.6299C35.0291 15.6861 33.9256 18.3162 33.8291 18.4935C33.5731 18.9434 33.3339 19.1208 32.9857 19.1165C32.6038 19.1121 32.5954 19.1035 32.5954 18.7401V18.4243L32.8388 18.446C33.057 18.4676 33.0948 18.4589 33.1745 18.3681C33.2248 18.3162 33.2668 18.247 33.2668 18.2167C33.2668 18.1648 32.6248 16.7113 32.2849 15.9976C32.201 15.8202 32.1339 15.6601 32.1339 15.6385C32.1339 15.6212 32.3059 15.6039 32.5115 15.6039C32.8682 15.6039 32.8934 15.6082 32.9269 15.6991Z" fill="white"/>
<path d="M16.9448 16.1741C16.7098 16.2433 16.5252 16.4164 16.4035 16.6802C16.3112 16.8835 16.2944 16.983 16.2944 17.3118C16.2986 17.8871 16.4707 18.2462 16.8399 18.4192C17.2553 18.6182 17.7043 18.4495 17.9351 18.0082C18.0358 17.8222 18.0567 17.7227 18.0693 17.3983C18.0903 16.9095 17.9896 16.598 17.742 16.3644C17.5071 16.1438 17.2511 16.0833 16.9448 16.1741Z" fill="white"/>
<path d="M26.5786 16.1873C26.3478 16.2695 26.1464 16.4901 26.0457 16.7669C25.9157 17.126 25.945 17.7013 26.1087 18.0084C26.2346 18.2507 26.3688 18.3718 26.5912 18.4497C27.2542 18.6876 27.8374 18.0517 27.7577 17.1779C27.7073 16.6415 27.464 16.2781 27.0779 16.17C26.8639 16.1094 26.78 16.1137 26.5786 16.1873Z" fill="white"/>
<path d="M7.27749 17.0315C7.17259 17.3646 7.08447 17.6587 7.08447 17.6804C7.08447 17.7063 7.25651 17.7236 7.49987 17.7236H7.91108L7.71806 17.0748C7.61316 16.7157 7.51246 16.4259 7.49987 16.4259C7.48309 16.4259 7.38239 16.6984 7.27749 17.0315Z" fill="white"/>
<path d="M10.189 16.5821V16.9541L10.7596 16.9368C11.3261 16.9238 11.3303 16.9238 11.431 16.8027C11.561 16.6426 11.561 16.4523 11.4268 16.3182C11.3303 16.2144 11.3051 16.2101 10.7554 16.2101H10.189V16.5821Z" fill="white"/>
<path d="M10.189 17.9873V18.4199L10.7974 18.4069C11.3638 18.394 11.41 18.3853 11.4981 18.2945C11.5736 18.2209 11.5946 18.1474 11.5946 17.9787C11.5946 17.7927 11.5778 17.7451 11.4771 17.6543C11.3638 17.5548 11.3303 17.5504 10.7722 17.5504H10.189V17.9873Z" fill="white"/>
<path d="M29.7422 17.9787C29.7422 18.3507 29.7506 18.4069 29.8177 18.4199C29.8555 18.4329 30.1114 18.4286 30.38 18.4156C30.8205 18.3983 30.8835 18.3853 30.9674 18.2945C31.0429 18.2209 31.0639 18.1474 31.0639 17.9787C31.0639 17.7927 31.0471 17.7451 30.9464 17.6542C30.8331 17.5547 30.7996 17.5504 30.2835 17.5504H29.7422V17.9787Z" fill="white"/>
<path d="M8.00684 22.8539C8.00684 22.8929 8.12013 23.1394 8.2544 23.4076C9.97054 26.7472 12.7818 29.3772 16.147 30.7788C18.3289 31.6872 20.7751 32.0895 23.0326 31.9122C28.1432 31.5099 32.5742 28.724 35.2344 24.2425C35.4987 23.797 35.868 23.0659 35.868 22.988C35.868 22.9231 35.675 22.9188 33.8875 22.9145C31.6175 22.9145 19.0548 22.841 15.4169 22.8107C14.0826 22.7977 13 22.802 13.0168 22.8193C13.0336 22.8366 13.1553 22.8885 13.2853 22.9361L13.5245 23.0226L13.6 23.3254C13.9609 24.7789 14.9595 27.3182 15.5344 28.2439C15.6435 28.4212 15.6687 28.4948 15.6267 28.4948C15.5931 28.4948 15.547 28.4688 15.5302 28.4385C15.5134 28.4083 15.4295 28.3564 15.3498 28.3217C15.27 28.2871 15.1567 28.2266 15.098 28.1833C15.0393 28.1357 14.863 28.0103 14.6994 27.9021C13.9903 27.422 12.8616 26.4919 12.4126 26.0291C12.0601 25.6614 11.4014 24.9087 11.2545 24.7097C11.1706 24.5886 11.0363 24.4155 10.9566 24.3161C10.8811 24.2166 10.8181 24.1171 10.8181 24.0954C10.8181 24.0738 10.7804 24.0176 10.7342 23.9743C10.6881 23.9311 10.6503 23.8705 10.6503 23.8359C10.6503 23.8056 10.6209 23.7667 10.5873 23.7537C10.5538 23.7364 10.5244 23.7104 10.5244 23.6888C10.5244 23.6672 10.4699 23.5677 10.4027 23.4682C10.3356 23.3644 10.2097 23.1697 10.1258 23.0313L9.97054 22.7847H8.98869C8.11173 22.7847 8.00684 22.7934 8.00684 22.8539ZM16.2687 23.8489C16.5582 23.9094 17.5233 24.0781 18.4128 24.2252L20.0283 24.4977L20.0157 24.6448C20.0073 24.727 19.8898 25.8647 19.7513 27.1754C19.617 28.4818 19.5038 29.5806 19.5038 29.6108C19.5038 29.7147 19.3821 29.7147 19.2394 29.6022C19.1597 29.5416 19.08 29.4897 19.0548 29.4897C19.0338 29.4897 18.9709 29.4421 18.9205 29.3859C18.866 29.3297 18.7779 29.2691 18.7233 29.2561C18.6688 29.2388 18.6226 29.1999 18.6226 29.1609C18.6226 29.1263 18.589 29.0831 18.5471 29.0658C18.4338 29.0225 18.1191 28.7327 18.1191 28.6765C18.1191 28.6505 18.0813 28.6159 18.0352 28.6029C17.989 28.5899 17.9513 28.5467 17.9513 28.5164C17.9513 28.4818 17.9135 28.4342 17.8673 28.4083C17.8212 28.3823 17.7834 28.3347 17.7834 28.3001C17.7834 28.2655 17.7456 28.2179 17.6995 28.192C17.6533 28.166 17.6156 28.1184 17.6156 28.0795C17.6156 28.0449 17.5862 28.006 17.5526 27.993C17.5191 27.9757 17.4897 27.9411 17.4897 27.9065C17.4897 27.8719 17.4519 27.8113 17.4058 27.7724C17.3596 27.7291 17.3219 27.6815 17.3219 27.6642C17.3219 27.6512 17.2463 27.5171 17.154 27.3744C17.0617 27.2316 16.9862 27.0846 16.9862 27.05C16.9862 27.0154 16.961 26.9678 16.9316 26.9505C16.8687 26.9072 16.6925 26.5395 16.6925 26.4443C16.6925 26.4054 16.6631 26.3622 16.6295 26.3492C16.596 26.3319 16.554 26.2497 16.5414 26.1588C16.5246 26.0637 16.4869 25.9815 16.4575 25.9685C16.4239 25.9555 16.3987 25.9123 16.3987 25.8733C16.3987 25.8344 16.361 25.7219 16.319 25.6224C16.2771 25.523 16.2141 25.3672 16.1764 25.2721C16.1428 25.1769 16.0757 24.9909 16.0253 24.8611C15.9792 24.727 15.9372 24.5713 15.9372 24.5107C15.9372 24.4458 15.9078 24.3723 15.8743 24.342C15.8407 24.3117 15.8113 24.2166 15.8113 24.13C15.8113 24.0435 15.7819 23.9354 15.7484 23.8921C15.6812 23.8013 15.6687 23.7364 15.7148 23.7364C15.7316 23.7364 15.9792 23.7883 16.2687 23.8489ZM33.384 24.0435C33.2875 24.1647 33.0903 24.4112 32.9518 24.5972C32.5028 25.2028 31.5755 26.2064 30.9923 26.7342C30.5601 27.1192 29.8887 27.6296 29.8132 27.6296C29.7797 27.6296 29.7419 27.6599 29.7251 27.6945C29.7125 27.7291 29.6538 27.781 29.595 27.8026C29.5363 27.8243 29.4901 27.8632 29.4901 27.8892C29.4901 27.9108 29.465 27.9324 29.4356 27.9324C29.402 27.9324 29.3433 27.9714 29.3013 28.0189C29.2594 28.0665 29.2006 28.1055 29.1754 28.1055C29.1461 28.1055 29.0747 28.1444 29.016 28.192C28.9572 28.2396 28.8817 28.2785 28.8481 28.2785C28.8188 28.2785 28.7558 28.3174 28.7139 28.365C28.6719 28.4126 28.6174 28.4515 28.5964 28.4515C28.5712 28.4515 28.353 28.551 28.1097 28.6721C27.8663 28.7933 27.5054 28.9706 27.3082 29.0658C27.111 29.1609 26.897 29.2648 26.8341 29.2994C26.767 29.334 26.6411 29.3599 26.5488 29.3599C26.4019 29.3599 26.3851 29.347 26.3851 29.2561C26.3851 29.1912 26.4858 29.0268 26.6369 28.8322C26.7795 28.6592 26.9222 28.4688 26.9642 28.4126C27.0019 28.3564 27.0858 28.2569 27.153 28.1833C27.2159 28.1141 27.2663 28.0319 27.2663 28.0016C27.2663 27.9714 27.2998 27.9151 27.346 27.8719C27.388 27.8329 27.4593 27.7161 27.5012 27.6166C27.5474 27.5171 27.6103 27.4047 27.6481 27.3657C27.6901 27.3225 27.732 27.2316 27.7488 27.1581C27.7656 27.0846 27.795 27.024 27.8159 27.024C27.8369 27.024 27.8873 26.9505 27.925 26.8596C27.967 26.7731 28.0383 26.6477 28.0887 26.5828C28.139 26.5179 28.1936 26.3881 28.2104 26.2886C28.2271 26.1935 28.2565 26.1156 28.2775 26.1156C28.3111 26.1156 28.5754 25.5749 28.6929 25.2504C28.7223 25.1682 28.7726 25.0687 28.8062 25.0298C28.8356 24.9952 28.8607 24.939 28.8607 24.9087C28.8607 24.8352 29.0118 24.7919 29.3852 24.7573C30.665 24.6448 32.5784 24.2425 33.2875 23.9354C33.4259 23.8748 33.5476 23.8272 33.5518 23.8229C33.5602 23.8229 33.4847 23.9224 33.384 24.0435ZM24.6648 24.8178C25.6005 24.8438 26.4271 24.8741 26.5026 24.8871C26.6369 24.9087 26.6411 24.9173 26.5781 24.9866C26.5446 25.0255 26.4858 25.1466 26.4481 25.2504C26.4103 25.3586 26.3599 25.4624 26.3264 25.4883C26.297 25.51 26.2467 25.6051 26.2215 25.696C26.1921 25.7868 26.1418 25.8733 26.1082 25.8863C26.0788 25.895 26.0327 25.9728 26.0075 26.055C25.9781 26.1372 25.911 26.254 25.8564 26.3102C25.8019 26.3665 25.7557 26.4357 25.7557 26.4573C25.7557 26.5092 25.4998 26.9072 25.4494 26.9288C25.4326 26.9375 25.3823 27.0197 25.3361 27.1105C25.2942 27.2014 25.227 27.2836 25.1893 27.2965C25.1557 27.3138 25.1263 27.3528 25.1263 27.3917C25.1263 27.4263 25.0718 27.5128 25.0005 27.5777C24.9333 27.6469 24.8746 27.7248 24.8746 27.7507C24.8746 27.7767 24.8368 27.8113 24.7907 27.8243C24.7445 27.8373 24.7067 27.8675 24.7067 27.8935C24.7067 27.9151 24.6144 28.0276 24.5011 28.1444C24.3837 28.2655 24.2704 28.3996 24.2452 28.4515C24.22 28.4991 24.1781 28.538 24.1487 28.538C24.1193 28.538 24.0732 28.577 24.0438 28.6246C24.0144 28.6721 23.9641 28.7111 23.9305 28.7111C23.8969 28.7111 23.8675 28.737 23.8675 28.7716C23.8675 28.8062 23.8214 28.8452 23.7627 28.8581C23.7039 28.8754 23.6578 28.9144 23.6578 28.9447C23.6578 28.9793 23.6116 29.0182 23.5529 29.0312C23.4941 29.0485 23.448 29.0874 23.448 29.122C23.448 29.1566 23.4228 29.1869 23.3892 29.1869C23.3598 29.1869 23.3095 29.2172 23.2801 29.2518C23.2549 29.2864 23.1123 29.3729 22.9654 29.4465C22.8186 29.52 22.6759 29.6065 22.6507 29.6411C22.6214 29.6757 22.5584 29.706 22.5081 29.706C22.4619 29.706 22.3822 29.7363 22.3402 29.7709C22.2941 29.8055 22.2269 29.8358 22.185 29.8358C22.1472 29.8358 22.0591 29.8661 21.9962 29.9007C21.8283 29.9915 21.6857 29.9829 21.6857 29.8877C21.6857 29.8488 21.7024 29.6498 21.7276 29.4465C21.7486 29.2431 21.8619 28.1617 21.9794 27.0456C22.0927 25.9253 22.1976 24.9476 22.2143 24.8654L22.2353 24.7184L22.6004 24.7443C22.8018 24.7573 23.7291 24.7919 24.6648 24.8178Z" fill="white"/>
</g>
<g filter="url(#filter1_d_523_11)">
<path d="M50.3779 10.6553L47.2842 20.085H44.792L49.0186 8.70996H50.6045L50.3779 10.6553ZM52.9482 20.085L49.8467 10.6553L49.5967 8.70996H51.1982L55.4482 20.085H52.9482ZM52.8076 15.8506V17.6865H46.7998V15.8506H52.8076ZM62.5561 15.0928H59.6342L59.6186 13.4834H62.0717C62.504 13.4834 62.8581 13.4287 63.1342 13.3193C63.4102 13.2048 63.616 13.0407 63.7514 12.8271C63.892 12.6084 63.9623 12.3428 63.9623 12.0303C63.9623 11.6761 63.8946 11.3896 63.7592 11.1709C63.629 10.9521 63.4232 10.7933 63.142 10.6943C62.866 10.5954 62.5092 10.5459 62.0717 10.5459H60.4467V20.085H58.1029V8.70996H62.0717C62.7331 8.70996 63.3243 8.77246 63.8451 8.89746C64.3712 9.02246 64.8165 9.21257 65.1811 9.46777C65.5456 9.72298 65.8243 10.0459 66.017 10.4365C66.2097 10.8219 66.3061 11.2803 66.3061 11.8115C66.3061 12.2803 66.1993 12.7126 65.9857 13.1084C65.7774 13.5042 65.4467 13.8271 64.9936 14.0771C64.5456 14.3271 63.9597 14.4652 63.2357 14.4912L62.5561 15.0928ZM62.4545 20.085H58.9936L59.9076 18.2568H62.4545C62.866 18.2568 63.2019 18.1917 63.4623 18.0615C63.7227 17.9261 63.9154 17.7438 64.0404 17.5146C64.1654 17.2855 64.2279 17.0225 64.2279 16.7256C64.2279 16.3923 64.1706 16.1032 64.0561 15.8584C63.9467 15.6136 63.7696 15.4261 63.5248 15.2959C63.28 15.1605 62.9571 15.0928 62.5561 15.0928H60.2982L60.3139 13.4834H63.1264L63.6654 14.1162C64.3581 14.1058 64.9154 14.2282 65.3373 14.4834C65.7644 14.7334 66.0743 15.0589 66.267 15.46C66.4649 15.861 66.5639 16.2907 66.5639 16.749C66.5639 17.4782 66.405 18.0928 66.0873 18.5928C65.7696 19.0876 65.3035 19.46 64.6889 19.71C64.0795 19.96 63.3347 20.085 62.4545 20.085ZM74.7889 8.70996V20.085H72.4529V8.70996H74.7889ZM78.2889 8.70996V10.5459H69.0076V8.70996H78.2889ZM90.3498 14.1318V14.6709C90.3498 15.5355 90.2326 16.3115 89.9982 16.999C89.7639 17.6865 89.4331 18.2725 89.0061 18.7568C88.579 19.236 88.0686 19.6032 87.4748 19.8584C86.8863 20.1136 86.2326 20.2412 85.5139 20.2412C84.8003 20.2412 84.1467 20.1136 83.5529 19.8584C82.9644 19.6032 82.454 19.236 82.0217 18.7568C81.5894 18.2725 81.2534 17.6865 81.0139 16.999C80.7795 16.3115 80.6623 15.5355 80.6623 14.6709V14.1318C80.6623 13.262 80.7795 12.486 81.0139 11.8037C81.2482 11.1162 81.579 10.5303 82.0061 10.0459C82.4383 9.56152 82.9488 9.19173 83.5373 8.93652C84.1311 8.68132 84.7847 8.55371 85.4982 8.55371C86.217 8.55371 86.8706 8.68132 87.4592 8.93652C88.0529 9.19173 88.5633 9.56152 88.9904 10.0459C89.4227 10.5303 89.7561 11.1162 89.9904 11.8037C90.23 12.486 90.3498 13.262 90.3498 14.1318ZM87.9826 14.6709V14.1162C87.9826 13.512 87.9279 12.9808 87.8186 12.5225C87.7092 12.0641 87.5477 11.6787 87.3342 11.3662C87.1206 11.0537 86.8602 10.8193 86.5529 10.6631C86.2456 10.5016 85.8941 10.4209 85.4982 10.4209C85.1024 10.4209 84.7508 10.5016 84.4436 10.6631C84.1415 10.8193 83.8837 11.0537 83.6701 11.3662C83.4618 11.6787 83.3029 12.0641 83.1936 12.5225C83.0842 12.9808 83.0295 13.512 83.0295 14.1162V14.6709C83.0295 15.2699 83.0842 15.8011 83.1936 16.2646C83.3029 16.723 83.4644 17.111 83.6779 17.4287C83.8915 17.7412 84.1519 17.9782 84.4592 18.1396C84.7665 18.3011 85.118 18.3818 85.5139 18.3818C85.9097 18.3818 86.2613 18.3011 86.5686 18.1396C86.8758 17.9782 87.1337 17.7412 87.342 17.4287C87.5503 17.111 87.7092 16.723 87.8186 16.2646C87.9279 15.8011 87.9826 15.2699 87.9826 14.6709ZM101.106 8.70996V10.5459H95.9811V20.085H93.6451V8.70996H101.106ZM110.886 8.70996V10.5459H105.229V8.70996H110.886ZM112.558 8.70996V20.085H110.214V8.70996H112.558ZM104.933 8.70996H107.269L106.979 14.4209C106.938 15.2751 106.857 16.0173 106.737 16.6475C106.623 17.2777 106.466 17.8141 106.269 18.2568C106.071 18.6943 105.826 19.0485 105.534 19.3193C105.248 19.585 104.909 19.7803 104.519 19.9053C104.128 20.0251 103.683 20.085 103.183 20.085H102.604V18.2568L102.901 18.2334C103.157 18.2074 103.381 18.1396 103.573 18.0303C103.766 17.9209 103.93 17.7568 104.065 17.5381C104.206 17.3193 104.321 17.0407 104.409 16.7021C104.503 16.3584 104.576 15.9391 104.628 15.4443C104.685 14.9495 104.724 14.3714 104.745 13.71L104.933 8.70996ZM125.54 14.1318V14.6709C125.54 15.5355 125.423 16.3115 125.189 16.999C124.954 17.6865 124.624 18.2725 124.197 18.7568C123.77 19.236 123.259 19.6032 122.665 19.8584C122.077 20.1136 121.423 20.2412 120.704 20.2412C119.991 20.2412 119.337 20.1136 118.744 19.8584C118.155 19.6032 117.645 19.236 117.212 18.7568C116.78 18.2725 116.444 17.6865 116.204 16.999C115.97 16.3115 115.853 15.5355 115.853 14.6709V14.1318C115.853 13.262 115.97 12.486 116.204 11.8037C116.439 11.1162 116.77 10.5303 117.197 10.0459C117.629 9.56152 118.139 9.19173 118.728 8.93652C119.322 8.68132 119.975 8.55371 120.689 8.55371C121.408 8.55371 122.061 8.68132 122.65 8.93652C123.244 9.19173 123.754 9.56152 124.181 10.0459C124.613 10.5303 124.947 11.1162 125.181 11.8037C125.421 12.486 125.54 13.262 125.54 14.1318ZM123.173 14.6709V14.1162C123.173 13.512 123.119 12.9808 123.009 12.5225C122.9 12.0641 122.738 11.6787 122.525 11.3662C122.311 11.0537 122.051 10.8193 121.744 10.6631C121.436 10.5016 121.085 10.4209 120.689 10.4209C120.293 10.4209 119.941 10.5016 119.634 10.6631C119.332 10.8193 119.074 11.0537 118.861 11.3662C118.652 11.6787 118.494 12.0641 118.384 12.5225C118.275 12.9808 118.22 13.512 118.22 14.1162V14.6709C118.22 15.2699 118.275 15.8011 118.384 16.2646C118.494 16.723 118.655 17.111 118.869 17.4287C119.082 17.7412 119.343 17.9782 119.65 18.1396C119.957 18.3011 120.309 18.3818 120.704 18.3818C121.1 18.3818 121.452 18.3011 121.759 18.1396C122.066 17.9782 122.324 17.7412 122.533 17.4287C122.741 17.111 122.9 16.723 123.009 16.2646C123.119 15.8011 123.173 15.2699 123.173 14.6709ZM136.265 8.70996V10.5459H131.148V20.085H128.812V8.70996H136.265ZM130.344 12.8584H133C133.896 12.8584 134.666 13.0068 135.312 13.3037C135.958 13.6006 136.456 14.0173 136.804 14.5537C137.153 15.0902 137.328 15.7152 137.328 16.4287C137.328 16.9704 137.229 17.4652 137.031 17.9131C136.833 18.3558 136.544 18.7412 136.164 19.0693C135.789 19.3923 135.336 19.6423 134.804 19.8193C134.273 19.9964 133.672 20.085 133 20.085H128.812V8.70996H131.164V18.2568H133C133.448 18.2568 133.818 18.1735 134.109 18.0068C134.401 17.8402 134.62 17.6188 134.765 17.3428C134.916 17.0615 134.992 16.7516 134.992 16.4131C134.992 16.0902 134.916 15.7985 134.765 15.5381C134.62 15.2725 134.401 15.0641 134.109 14.9131C133.818 14.762 133.448 14.6865 133 14.6865H130.344V12.8584ZM143.889 15.96L146.686 8.70996H149.209L145.311 17.8818C145.175 18.1943 145.019 18.4938 144.842 18.7803C144.67 19.0615 144.464 19.3141 144.225 19.5381C143.985 19.7568 143.699 19.9313 143.365 20.0615C143.032 20.1865 142.634 20.249 142.17 20.249C142.056 20.249 141.915 20.2464 141.748 20.2412C141.582 20.236 141.449 20.2282 141.35 20.2178L141.334 18.3896C141.397 18.4053 141.496 18.4157 141.631 18.4209C141.766 18.4209 141.865 18.4209 141.928 18.4209C142.235 18.4209 142.477 18.3766 142.654 18.2881C142.832 18.1995 142.972 18.0745 143.076 17.9131C143.186 17.7464 143.282 17.5511 143.365 17.3271L143.889 15.96ZM142.037 8.70996L144.631 14.3428L145.358 16.9287L143.615 16.96L139.522 8.70996H142.037ZM158.434 16.3115H160.77C160.723 17.0771 160.512 17.7568 160.137 18.3506C159.768 18.9443 159.249 19.4079 158.583 19.7412C157.921 20.0745 157.124 20.2412 156.192 20.2412C155.463 20.2412 154.809 20.1162 154.231 19.8662C153.653 19.611 153.158 19.2464 152.747 18.7725C152.34 18.2985 152.031 17.7256 151.817 17.0537C151.603 16.3818 151.497 15.6292 151.497 14.7959V14.0068C151.497 13.1735 151.606 12.4209 151.825 11.749C152.049 11.0719 152.366 10.4964 152.778 10.0225C153.195 9.5485 153.692 9.18392 154.27 8.92871C154.848 8.6735 155.494 8.5459 156.208 8.5459C157.156 8.5459 157.955 8.71777 158.606 9.06152C159.262 9.40527 159.77 9.87923 160.129 10.4834C160.494 11.0876 160.713 11.7751 160.786 12.5459H158.442C158.416 12.0876 158.325 11.6995 158.169 11.3818C158.012 11.0589 157.775 10.8167 157.458 10.6553C157.145 10.4886 156.728 10.4053 156.208 10.4053C155.817 10.4053 155.476 10.4782 155.184 10.624C154.893 10.7699 154.648 10.9912 154.45 11.2881C154.252 11.585 154.103 11.96 154.004 12.4131C153.911 12.861 153.864 13.387 153.864 13.9912V14.7959C153.864 15.3844 153.908 15.9027 153.997 16.3506C154.085 16.7933 154.221 17.1683 154.403 17.4756C154.59 17.7777 154.83 18.0068 155.122 18.1631C155.419 18.3141 155.775 18.3896 156.192 18.3896C156.682 18.3896 157.085 18.3115 157.403 18.1553C157.721 17.999 157.963 17.7673 158.129 17.46C158.301 17.1527 158.403 16.7699 158.434 16.3115Z" fill="white"/>
</g>
<path d="M44.8403 27.1572H177" stroke="url(#paint0_linear_523_11)" stroke-width="3"/>
<defs>
<filter id="filter0_d_523_11" x="0" y="0" width="44.4023" height="39.9531" filterUnits="userSpaceOnUse" color-interpolation-filters="sRGB">
<feFlood flood-opacity="0" result="BackgroundImageFix"/>
<feColorMatrix in="SourceAlpha" type="matrix" values="0 0 0 0 0 0 0 0 0 0 0 0 0 0 0 0 0 0 127 0" result="hardAlpha"/>
<feOffset dy="4"/>
<feGaussianBlur stdDeviation="2"/>
<feComposite in2="hardAlpha" operator="out"/>
<feColorMatrix type="matrix" values="0 0 0 0 0 0 0 0 0 0 0 0 0 0 0 0 0 0 0.25 0"/>
<feBlend mode="normal" in2="BackgroundImageFix" result="effect1_dropShadow_523_11"/>
<feBlend mode="normal" in="SourceGraphic" in2="effect1_dropShadow_523_11" result="shape"/>
</filter>
<filter id="filter1_d_523_11" x="40.792" y="8.5459" width="123.994" height="19.7031" filterUnits="userSpaceOnUse" color-interpolation-filters="sRGB">
<feFlood flood-opacity="0" result="BackgroundImageFix"/>
<feColorMatrix in="SourceAlpha" type="matrix" values="0 0 0 0 0 0 0 0 0 0 0 0 0 0 0 0 0 0 127 0" result="hardAlpha"/>
<feOffset dy="4"/>
<feGaussianBlur stdDeviation="2"/>
<feComposite in2="hardAlpha" operator="out"/>
<feColorMatrix type="matrix" values="0 0 0 0 0 0 0 0 0 0 0 0 0 0 0 0 0 0 0.25 0"/>
<feBlend mode="normal" in2="BackgroundImageFix" result="effect1_dropShadow_523_11"/>
<feBlend mode="normal" in="SourceGraphic" in2="effect1_dropShadow_523_11" result="shape"/>
</filter>
<linearGradient id="paint0_linear_523_11" x1="42.1073" y1="27.1572" x2="173.096" y2="27.1572" gradientUnits="userSpaceOnUse">
<stop stop-color="white"/>
<stop offset="1" stop-color="white" stop-opacity="0"/>
</linearGradient>
</defs>
</svg>
