<svg width="34" height="34" viewBox="0 0 34 34" fill="none" xmlns="http://www.w3.org/2000/svg">
<path d="M33.9808 26.8326C33.8996 26.3312 33.5854 25.9027 33.1147 25.6481L26.152 21.5445L26.0947 21.5124C25.8134 21.3681 25.488 21.2938 25.1538 21.2938C24.5705 21.2938 24.0134 21.5149 23.6268 21.9026L21.5717 23.9592C21.4838 24.0428 21.1972 24.1638 21.1103 24.1681C21.0865 24.1662 18.7191 23.9957 14.3608 19.6355C10.0102 15.2847 9.82562 12.9093 9.82417 12.9093C9.8266 12.7878 9.94608 12.5022 10.0311 12.4137L11.7835 10.6612C12.4009 10.0422 12.5859 9.01611 12.2197 8.22124L8.34953 0.936738C8.0683 0.357593 7.52187 0 6.9157 0C6.48681 0 6.07298 0.177825 5.7495 0.500922L0.972484 5.26867C0.514454 5.7244 0.120053 6.52121 0.0340809 7.16255C-0.00769064 7.46913 -0.855265 14.7872 9.17476 24.8216C17.6898 33.3383 24.3296 34 26.1632 34C26.5576 34 26.7873 33.9718 26.8315 33.9655C27.4707 33.88 28.2663 33.4864 28.7214 33.0302L33.4946 28.2562C33.8841 27.8646 34.0619 27.3471 33.9808 26.8326Z" fill="black"/>
</svg>
