<svg width="22" height="21" viewBox="0 0 22 21" fill="none" xmlns="http://www.w3.org/2000/svg">
<path d="M20.9944 16.5731C20.9442 16.2634 20.7501 15.9987 20.4593 15.8415L16.1575 13.3069L16.1221 13.2871C15.9483 13.198 15.7473 13.152 15.5408 13.152C15.1804 13.152 14.8362 13.2886 14.5973 13.5281L13.3276 14.7983C13.2733 14.85 13.0963 14.9247 13.0426 14.9274C13.0279 14.9262 11.5652 14.8208 8.87251 12.1278C6.18461 9.44053 6.07057 7.97339 6.06967 7.97339C6.07117 7.89837 6.14499 7.72192 6.19751 7.6673L7.28023 6.58488C7.66165 6.20256 7.77598 5.56877 7.54972 5.07782L5.1586 0.578573C4.98485 0.220866 4.64724 0 4.27273 0C4.00775 0 3.75208 0.109833 3.55222 0.309393L0.60083 3.25418C0.317846 3.53566 0.0741722 4.02781 0.0210562 4.42393C-0.00475151 4.61328 -0.528409 9.13324 5.66845 15.331C10.9293 20.5913 15.0316 21 16.1644 21C16.4081 21 16.55 20.9826 16.5773 20.9787C16.9722 20.9259 17.4638 20.6828 17.745 20.401L20.694 17.4523C20.9346 17.2105 21.0445 16.8909 20.9944 16.5731Z" fill="white"/>
</svg>
