<svg width="35" height="36" viewBox="0 0 35 36" fill="none" xmlns="http://www.w3.org/2000/svg">
<path d="M17.5039 8.78821C12.5379 8.78821 8.53235 12.7938 8.53235 17.7598C8.53235 22.7257 12.5379 26.7313 17.5039 26.7313C22.4699 26.7313 26.4755 22.7257 26.4755 17.7598C26.4755 12.7938 22.4699 8.78821 17.5039 8.78821ZM17.5039 23.5925C14.2948 23.5925 11.6712 20.9767 11.6712 17.7598C11.6712 14.5428 14.287 11.9271 17.5039 11.9271C20.7209 11.9271 23.3366 14.5428 23.3366 17.7598C23.3366 20.9767 20.7131 23.5925 17.5039 23.5925ZM28.935 8.42123C28.935 9.58464 27.9981 10.5138 26.8424 10.5138C25.679 10.5138 24.7499 9.57683 24.7499 8.42123C24.7499 7.26562 25.6868 6.32865 26.8424 6.32865C27.9981 6.32865 28.935 7.26562 28.935 8.42123ZM34.877 10.545C34.7443 7.74192 34.104 5.25893 32.0505 3.2132C30.0047 1.16746 27.5218 0.527197 24.7186 0.38665C21.8296 0.222679 13.1704 0.222679 10.2814 0.38665C7.48606 0.519389 5.00307 1.15966 2.94953 3.20539C0.895985 5.25112 0.263525 7.73411 0.122978 10.5372C-0.0409927 13.4262 -0.0409927 22.0855 0.122978 24.9745C0.255717 27.7776 0.895985 30.2606 2.94953 32.3063C5.00307 34.3521 7.47825 34.9923 10.2814 35.1329C13.1704 35.2969 21.8296 35.2969 24.7186 35.1329C27.5218 35.0001 30.0047 34.3599 32.0505 32.3063C34.0962 30.2606 34.7365 27.7776 34.877 24.9745C35.041 22.0855 35.041 13.4341 34.877 10.545ZM31.1447 28.0743C30.5357 29.6047 29.3567 30.7838 27.8185 31.4006C25.5151 32.3141 20.0494 32.1033 17.5039 32.1033C14.9585 32.1033 9.48494 32.3063 7.18935 31.4006C5.65895 30.7916 4.47992 29.6125 3.86308 28.0743C2.94953 25.7709 3.16035 20.3052 3.16035 17.7598C3.16035 15.2143 2.95733 9.74081 3.86308 7.44521C4.47211 5.91481 5.65114 4.73579 7.18935 4.11894C9.49275 3.20539 14.9585 3.41621 17.5039 3.41621C20.0494 3.41621 25.5229 3.2132 27.8185 4.11894C29.3489 4.72798 30.5279 5.90701 31.1447 7.44521C32.0583 9.74861 31.8475 15.2143 31.8475 17.7598C31.8475 20.3052 32.0583 25.7787 31.1447 28.0743Z" fill="white"/>
</svg>
