<svg width="464" height="98" viewBox="0 0 464 98" fill="none" xmlns="http://www.w3.org/2000/svg">
<g filter="url(#filter0_d_336_18)">
<path d="M53.3463 0.0359917C47.8511 0.596478 46.0966 0.937642 42.4412 2.15609C39.6875 3.08211 38.5178 3.55731 36.3246 4.65391C33.2785 6.17697 31.597 7.21265 29.0992 9.08906C27.8929 9.99071 27.6858 10.1735 26.0775 11.5869C20.1436 16.8384 15.416 24.2709 13.1253 31.935C12.8329 32.9341 12.6014 33.7748 12.6258 33.787C12.6502 33.8236 17.8042 33.8601 18.5109 33.8357C18.584 33.8357 18.6815 33.6652 18.7302 33.4458C18.8764 32.7148 20.631 28.2187 20.8869 27.9385C20.9356 27.8775 21.3255 28.1456 21.752 28.5233C22.4952 29.1935 26.4917 31.9837 28.0148 32.8975C28.4291 33.1534 29.0627 33.4824 29.416 33.6408L30.074 33.9332L37.3237 34.0063C41.3081 34.0429 48.2776 34.0916 52.798 34.0916L61.0225 34.1038L61.0957 32.0446C61.1566 30.2291 63.5691 7.31013 63.7153 7.16391C63.7762 7.0908 65.0069 8.16304 65.8354 9.02814C67.8946 11.1604 71.7936 17.1308 73.0243 20.0673C73.2192 20.5059 73.8163 22.1996 74.3524 23.8445C75.3028 26.7078 75.8267 28.7304 75.8267 29.5955C75.8267 29.8149 75.8998 30.3753 75.9973 30.8505C76.0948 31.3136 76.2166 32.203 76.2653 32.8122C76.3019 33.4337 76.3872 34.0063 76.4481 34.0916C76.5334 34.2378 78.5195 34.2744 88.1939 34.2988C99.7205 34.3475 99.8301 34.3475 99.8301 34.1038C99.8301 33.9698 99.6961 33.4093 99.5377 32.8488C97.2226 24.8923 93.2139 18.2152 87.3288 12.5129C80.3106 5.72614 71.2453 1.44939 61.3881 0.25531C59.8894 0.0847273 54.4186 -0.0736687 53.3463 0.0359917ZM57.3063 6.50595C57.3063 6.56687 57.0382 9.12561 56.6971 12.2083C56.3681 15.291 55.7832 20.6399 55.4177 24.0882C54.6379 31.472 54.3698 33.653 54.2602 33.8479C54.1871 33.9454 53.724 33.8967 52.53 33.6652C51.6283 33.4946 50.1784 33.2874 49.3133 33.2265C45.4264 32.9097 43.4525 32.5686 40.0774 31.5938L39.6022 31.4598L39.6753 30.5947C39.8337 28.8645 41.1253 25.2701 42.9286 21.5903C45.8285 15.6687 49.8616 11.1848 55.7832 7.28576C57.0382 6.44503 57.3063 6.311 57.3063 6.50595ZM45.268 7.7244C44.939 8.1143 44.5126 8.56513 44.3298 8.73571C44.147 8.90629 43.2332 9.99071 42.3072 11.1361C40.6135 13.244 39.3707 15.0107 38.4569 16.5947C38.1888 17.0577 37.5187 18.2152 36.9704 19.1534C35.9347 20.9567 33.2785 26.7078 32.8033 28.1943C32.6449 28.6817 32.4743 29.0838 32.4134 29.0838C32.1575 29.0838 30.5126 28.1212 29.282 27.2683C25.8703 24.8801 25.1758 24.2831 24.6275 23.2718L24.2985 22.6748L25.0905 21.6025C27.2837 18.6417 33.1323 13.4024 36.8973 11.0386C38.0548 10.3075 40.7719 8.90629 42.1975 8.30925C43.2698 7.85843 45.5117 7.04207 45.7067 7.04207C45.8041 7.02988 45.597 7.34668 45.268 7.7244ZM77.8371 11.6112C77.9712 11.6965 78.3001 11.9402 78.5682 12.1474C78.8363 12.3423 79.2384 12.5982 79.4577 12.6957C79.6648 12.7931 79.8476 12.9394 79.8476 13.0003C79.8476 13.0612 80.0303 13.2074 80.2497 13.3171C80.4568 13.4267 80.7127 13.6217 80.798 13.7435C80.8832 13.8776 81.0295 13.975 81.1026 13.975C81.1879 13.975 81.5412 14.2431 81.8946 14.5843C82.2479 14.9132 82.5769 15.1935 82.6378 15.1935C82.6987 15.1935 82.8328 15.3275 82.9424 15.4859C83.0399 15.6565 83.2349 15.8149 83.3689 15.8636C83.5029 15.9002 83.6491 16.0464 83.6857 16.1682C83.7222 16.2901 83.8685 16.4363 84.0025 16.4729C84.1243 16.5216 84.234 16.5947 84.234 16.6434C84.234 16.6922 84.7579 17.2648 85.3915 17.9228C86.0251 18.5686 86.549 19.1413 86.549 19.19C86.549 19.2387 86.7684 19.4824 87.0242 19.7261C87.2801 19.9576 87.536 20.2744 87.5725 20.4084C87.6213 20.5425 87.7309 20.6887 87.8284 20.7252C87.9259 20.7618 88.0112 20.8593 88.0112 20.9567C88.0112 21.042 88.2061 21.3223 88.4376 21.5782C88.6691 21.834 88.8641 22.0655 88.8641 22.1021C88.8641 22.1265 89.1078 22.5042 89.4124 22.9428C89.717 23.3693 89.9607 23.7835 89.9607 23.8445C89.9607 23.9176 90.046 24.0029 90.1435 24.0394C90.2409 24.0882 90.3262 24.21 90.3262 24.344C90.3262 24.4659 90.4359 24.6243 90.5699 24.6974C90.7039 24.7705 90.8136 24.9289 90.8136 25.0507C90.8136 25.1726 90.9233 25.4163 91.0573 25.5868C91.1913 25.7574 91.301 25.9768 91.301 26.0742C91.301 26.1839 91.3497 26.2935 91.4106 26.3301C91.5447 26.4154 92.1539 27.5729 92.1539 27.7557C92.1539 27.8288 92.2514 28.0237 92.3854 28.1821C92.5073 28.3405 92.6535 28.6695 92.69 28.9132C92.7631 29.2666 92.7144 29.4493 92.3854 29.9489C92.1783 30.2779 91.8493 30.6556 91.6665 30.7896C91.1182 31.1795 89.3758 32.0081 89.1078 32.0081C88.9738 32.0081 88.657 32.0934 88.4011 32.203C87.7309 32.4833 83.3933 33.5921 83.3323 33.4946C83.308 33.4458 83.247 33.1047 83.1983 32.7391C83.0277 31.3988 81.9189 25.6965 81.5534 24.2709C80.6517 20.7618 79.8719 18.4224 78.7875 15.9246C77.9102 13.9141 76.9233 11.5138 76.9233 11.3919C76.9233 11.2579 77.5325 11.4041 77.8371 11.6112Z" fill="white"/>
<path d="M8.50826 37.7968C6.21758 38.3816 4.93821 40.258 4.21932 44.084C4.06092 44.9978 4.01218 45.9238 4 48.7019C4 53.2711 4.26806 55.0378 5.30374 57.231C6.15665 59.0221 7.25326 59.8385 9.20277 60.1431C9.9704 60.2649 37.1418 60.4355 81.737 60.5939C105.558 60.6792 104.924 60.6914 106.167 60.1187C107.921 59.3024 109.14 56.8533 109.566 53.3442C109.773 51.6262 109.749 46.6549 109.518 45.0709C109.116 42.3294 108.421 40.5748 107.276 39.4295C106.435 38.5888 105.582 38.2476 104.035 38.1014C103.438 38.0405 94.3845 37.9674 83.9302 37.9308C73.4759 37.8821 63.1678 37.8333 61.0234 37.7968C58.8789 37.7602 46.3533 37.7115 33.1818 37.6749C12.0905 37.6262 9.15404 37.6384 8.50826 37.7968ZM44.2332 44.1205C46.1461 44.9856 47.2184 47.2641 46.8528 49.6401C46.4264 52.345 44.8058 53.8315 42.2836 53.8437C40.3098 53.8437 39.0426 53.1005 38.2506 51.4678C37.6657 50.2737 37.4708 48.9943 37.6779 47.8855C38.0191 46.131 38.5917 45.1318 39.6031 44.4739C40.9433 43.6209 42.7954 43.4747 44.2332 44.1205ZM71.831 43.9499C73.744 44.5348 74.8162 46.0822 74.9502 48.4094C75.0477 50.2493 74.5116 51.7602 73.4028 52.7471C71.7579 54.2093 69.1504 54.258 67.3349 52.8812C65.6047 51.5652 65.1539 47.8124 66.4698 45.7532C67.5786 44.0109 69.7109 43.292 71.831 43.9499ZM101.317 44.0961C101.671 44.2667 102.134 44.547 102.353 44.7297C102.792 45.0953 103.486 46.399 103.486 46.8377C103.486 47.1057 103.45 47.1179 102.512 47.1179H101.537L101.342 46.6305C101.086 45.9969 100.708 45.7045 99.9162 45.5339C98.71 45.2537 97.7718 45.741 97.26 46.8986C96.931 47.6662 96.8579 49.372 97.1382 50.3102C97.4915 51.553 98.5394 52.2476 99.77 52.0526C100.452 51.9551 101.208 51.3337 101.415 50.7001L101.561 50.2859H102.524C103.632 50.2859 103.62 50.2737 103.23 51.3094C102.56 53.1127 100.72 54.124 98.649 53.8194C96.3218 53.4904 94.9693 51.7114 94.9328 48.9212C94.8962 46.2772 96.0538 44.4495 98.1129 43.8646C98.978 43.6209 100.525 43.7306 101.317 44.0961ZM16.9643 48.5435C17.8538 51.0779 18.6092 53.2711 18.6457 53.4295C18.7067 53.7097 18.7067 53.7097 17.6344 53.6731L16.55 53.6366L16.2454 52.6253L15.953 51.6262L14.1253 51.6505L12.3098 51.6871L11.9808 52.6618L11.6519 53.6366L10.7624 53.6731C9.4952 53.7219 9.4952 53.7219 9.83637 52.8202C9.99476 52.3938 10.7136 50.3833 11.4325 48.3363C12.1514 46.2893 12.7972 44.4739 12.8581 44.2789C12.98 43.9499 12.98 43.9499 14.1619 43.9499H15.3316L16.9643 48.5435ZM26.5169 44.3033C27.8816 44.9856 28.2349 47.0204 27.1505 48.0439L26.7484 48.4216L27.1018 48.6288C27.7597 49.0187 28.0887 49.6888 28.1009 50.6148C28.1253 52.0648 27.4186 53.0274 25.993 53.466C25.7615 53.5391 24.3481 53.6366 22.8616 53.661L20.1444 53.7219V48.8237V43.9377L23.0443 43.9743C25.798 44.0109 25.9564 44.023 26.5169 44.3033ZM36.8372 44.8028V45.6558H35.375H33.9129L33.8885 49.6401L33.852 53.6366H32.8772H31.9025L31.8659 49.6401L31.8415 45.6558H30.3794H28.9173V44.8028V43.9499H32.8772H36.8372V44.8028ZM55.1139 44.8028V45.6558H52.8598H50.6056V49.6766V53.6975H49.6309H48.6561V48.8237V43.9499H51.885H55.1139V44.8028ZM64.2523 48.8237V53.6975H63.2775H62.3027V49.6766V45.6558H60.8406H59.3785V47.7515C59.3663 52.2841 58.7205 53.8194 56.8197 53.8194C55.8206 53.8194 55.7231 53.7219 55.7231 52.6862V51.8089H56.2836C56.7466 51.8089 56.8928 51.748 57.0756 51.5043C57.4046 51.0657 57.5508 49.5913 57.5508 46.533V43.9499H60.9015H64.2523V48.8237ZM83.7474 44.8028V45.6558H81.2496H78.7518V46.6793V47.7027L80.6769 47.7393C82.5534 47.788 82.6021 47.8002 83.26 48.1658C84.1983 48.6897 84.6003 49.4695 84.6003 50.7001C84.5882 52.0526 84.0642 52.9177 82.9554 53.4051C82.5534 53.5879 81.9929 53.6366 79.6413 53.6731L76.8023 53.7219V48.8359V43.9499H80.2748H83.7474V44.8028ZM87.9998 44.218C88.4506 45.4121 90.0103 48.9456 90.0834 48.9456C90.1321 48.9456 90.5829 47.8368 91.0825 46.4721L91.9963 44.0109L93.0442 43.9743C93.629 43.9621 94.1042 43.9743 94.1042 44.023C94.1042 44.1814 90.8997 51.5896 90.6195 52.0892C89.8762 53.3563 89.1817 53.8559 88.1704 53.8437C87.0616 53.8315 87.0372 53.8072 87.0372 52.7837V51.8942L87.7439 51.9551C88.3775 52.0161 88.4872 51.9917 88.7187 51.7358C88.8649 51.5896 88.9868 51.3946 88.9868 51.3094C88.9868 51.1631 87.1225 47.0692 86.1356 45.0587C85.8919 44.5592 85.6969 44.1083 85.6969 44.0474C85.6969 43.9987 86.1965 43.9499 86.7935 43.9499C87.8292 43.9499 87.9023 43.9621 87.9998 44.218Z" fill="white"/>
<path d="M41.5898 45.5569C40.9074 45.7519 40.3713 46.2393 40.018 46.9825C39.7499 47.5552 39.7012 47.8354 39.7012 48.7614C39.7134 50.382 40.2129 51.3933 41.2852 51.8807C42.4914 52.4412 43.7952 51.966 44.4653 50.7231C44.7577 50.1992 44.8187 49.919 44.8552 49.0051C44.9161 47.6283 44.6237 46.751 43.9048 46.093C43.2225 45.4716 42.4792 45.301 41.5898 45.5569Z" fill="white"/>
<path d="M69.5659 45.5932C68.8957 45.8247 68.3109 46.4461 68.0184 47.2259C67.6407 48.2372 67.726 49.8578 68.2012 50.7229C68.5667 51.4052 68.9566 51.7464 69.6024 51.9657C71.5276 52.6358 73.2212 50.8447 72.9897 48.3834C72.8435 46.8726 72.1368 45.8491 71.0158 45.5445C70.3944 45.3739 70.1507 45.3861 69.5659 45.5932Z" fill="white"/>
<path d="M13.5169 47.9699C13.2123 48.9081 12.9564 49.7367 12.9564 49.7976C12.9564 49.8707 13.456 49.9194 14.1627 49.9194H15.3568L14.7963 48.0918C14.4917 47.0804 14.1992 46.2641 14.1627 46.2641C14.1139 46.2641 13.8215 47.0317 13.5169 47.9699Z" fill="white"/>
<path d="M21.9705 46.7031V47.751L23.6275 47.7022C25.2725 47.6657 25.2846 47.6657 25.5771 47.3245C25.9548 46.8737 25.9548 46.3376 25.5649 45.9599C25.2846 45.6674 25.2115 45.6552 23.6154 45.6552H21.9705V46.7031Z" fill="white"/>
<path d="M21.9705 50.6624V51.8809L23.7372 51.8443C25.3821 51.8078 25.5161 51.7834 25.772 51.5275C25.9913 51.3204 26.0523 51.1132 26.0523 50.638C26.0523 50.1141 26.0035 49.9801 25.7111 49.7242C25.3821 49.444 25.2846 49.4318 23.6641 49.4318H21.9705V50.6624Z" fill="white"/>
<path d="M78.7523 50.6379C78.7523 51.6858 78.7767 51.8442 78.9716 51.8808C79.0813 51.9173 79.8246 51.9051 80.6044 51.8686C81.8837 51.8198 82.0665 51.7833 82.3102 51.5274C82.5295 51.3203 82.5904 51.1131 82.5904 50.6379C82.5904 50.114 82.5417 49.98 82.2493 49.7241C81.9203 49.4439 81.8228 49.4317 80.3241 49.4317H78.7523V50.6379Z" fill="white"/>
<path d="M15.6351 64.3703C15.6351 64.48 15.9641 65.1745 16.354 65.9299C21.3375 75.3363 29.5011 82.7445 39.273 86.6923C45.609 89.251 52.7125 90.3842 59.2678 89.8846C74.1085 88.7515 86.9753 80.9046 94.7002 68.2815C95.4678 67.0265 96.5401 64.9673 96.5401 64.748C96.5401 64.5653 95.9796 64.5531 90.789 64.5409C84.1972 64.5409 47.7169 64.3337 37.1529 64.2485C33.2783 64.2119 30.1347 64.2241 30.1834 64.2728C30.2321 64.3216 30.5855 64.4678 30.9632 64.6018L31.6577 64.8455L31.877 65.6984C32.9249 69.7924 35.8248 76.9447 37.4941 79.5522C37.8109 80.0517 37.884 80.2589 37.7621 80.2589C37.6647 80.2589 37.5306 80.1858 37.4819 80.1005C37.4332 80.0152 37.1895 79.869 36.958 79.7715C36.7265 79.674 36.3975 79.5034 36.2269 79.3816C36.0563 79.2476 35.5446 78.8942 35.0694 78.5896C33.0102 77.2371 29.7326 74.6175 28.4288 73.3137C27.4053 72.278 25.4924 70.1579 25.0659 69.5974C24.8222 69.2563 24.4323 68.7689 24.2008 68.4887C23.9815 68.2084 23.7987 67.9282 23.7987 67.8673C23.7987 67.8063 23.6891 67.6479 23.555 67.5261C23.421 67.4042 23.3114 67.2337 23.3114 67.1362C23.3114 67.0509 23.2261 66.9412 23.1286 66.9047C23.0311 66.8559 22.9458 66.7828 22.9458 66.7219C22.9458 66.661 22.7874 66.3807 22.5925 66.1005C22.3975 65.8081 22.032 65.2598 21.7883 64.8699L21.3375 64.1754H18.4863C15.9397 64.1754 15.6351 64.1997 15.6351 64.3703ZM39.6264 67.1727C40.4671 67.3433 43.2695 67.8185 45.8526 68.2328L50.5437 69.0004L50.5071 69.4147C50.4827 69.6462 50.1416 72.8507 49.7395 76.5426C49.3496 80.2223 49.0206 83.3172 49.0206 83.4025C49.0206 83.6949 48.6673 83.6949 48.253 83.3781C48.0215 83.2075 47.79 83.0613 47.7169 83.0613C47.6559 83.0613 47.4732 82.9273 47.327 82.7689C47.1686 82.6105 46.9127 82.4399 46.7543 82.4033C46.5959 82.3546 46.4619 82.2449 46.4619 82.1353C46.4619 82.0378 46.3644 81.916 46.2425 81.8672C45.9136 81.7454 44.9997 80.929 44.9997 80.7706C44.9997 80.6975 44.8901 80.6 44.756 80.5635C44.622 80.5269 44.5124 80.4051 44.5124 80.3198C44.5124 80.2223 44.4027 80.0883 44.2687 80.0152C44.1346 79.9421 44.025 79.808 44.025 79.7106C44.025 79.6131 43.9153 79.4791 43.7813 79.406C43.6473 79.3328 43.5376 79.1988 43.5376 79.0892C43.5376 78.9917 43.4523 78.882 43.3548 78.8455C43.2574 78.7967 43.1721 78.6993 43.1721 78.6018C43.1721 78.5043 43.0624 78.3337 42.9284 78.2241C42.7943 78.1022 42.6847 77.9682 42.6847 77.9194C42.6847 77.8829 42.4654 77.5052 42.1973 77.1031C41.9292 76.701 41.7099 76.2867 41.7099 76.1893C41.7099 76.0918 41.6368 75.9577 41.5515 75.909C41.3688 75.7872 40.857 74.7515 40.857 74.4834C40.857 74.3738 40.7717 74.2519 40.6742 74.2154C40.5768 74.1666 40.4549 73.9351 40.4184 73.6792C40.3696 73.4112 40.26 73.1797 40.1747 73.1431C40.0772 73.1066 40.0041 72.9847 40.0041 72.8751C40.0041 72.7654 39.8944 72.4486 39.7726 72.1684C39.6507 71.8881 39.468 71.4495 39.3583 71.1814C39.2608 70.9134 39.0659 70.3894 38.9197 70.0239C38.7856 69.6462 38.6638 69.2075 38.6638 69.037C38.6638 68.8542 38.5785 68.6471 38.481 68.5618C38.3836 68.4765 38.2983 68.2084 38.2983 67.9647C38.2983 67.721 38.213 67.4164 38.1155 67.2946C37.9205 67.0387 37.884 66.8559 38.018 66.8559C38.0668 66.8559 38.7856 67.0022 39.6264 67.1727ZM89.3269 67.721C89.0466 68.0622 88.474 68.7567 88.0719 69.2807C86.7681 70.9865 84.0754 73.8133 82.3817 75.2998C81.1267 76.3842 79.1772 77.822 78.9579 77.822C78.8604 77.822 78.7507 77.9073 78.702 78.0047C78.6655 78.1022 78.4949 78.2484 78.3243 78.3094C78.1537 78.3703 78.0197 78.4799 78.0197 78.553C78.0197 78.614 77.9466 78.6749 77.8613 78.6749C77.7638 78.6749 77.5932 78.7845 77.4714 78.9186C77.3495 79.0526 77.1789 79.1623 77.1058 79.1623C77.0205 79.1623 76.8134 79.2719 76.6428 79.406C76.4722 79.54 76.2529 79.6496 76.1554 79.6496C76.0702 79.6496 75.8874 79.7593 75.7655 79.8933C75.6437 80.0274 75.4853 80.137 75.4244 80.137C75.3513 80.137 74.7177 80.4173 74.011 80.7584C73.3043 81.0996 72.2564 81.5992 71.6837 81.8672C71.1111 82.1353 70.4897 82.4277 70.3069 82.5252C70.1119 82.6227 69.7464 82.6958 69.4784 82.6958C69.0519 82.6958 69.0032 82.6592 69.0032 82.4033C69.0032 82.2206 69.2956 81.7576 69.7342 81.2093C70.1485 80.7219 70.5628 80.1858 70.6846 80.0274C70.7943 79.869 71.038 79.5887 71.2329 79.3816C71.4157 79.1866 71.5619 78.9551 71.5619 78.8698C71.5619 78.7845 71.6594 78.6261 71.7934 78.5043C71.9152 78.3946 72.1224 78.0657 72.2442 77.7854C72.3783 77.5052 72.561 77.1884 72.6707 77.0787C72.7925 76.9569 72.9144 76.701 72.9631 76.4939C73.0119 76.2867 73.0971 76.1161 73.1581 76.1161C73.219 76.1161 73.3652 75.909 73.4749 75.6531C73.5967 75.4094 73.8038 75.0561 73.9501 74.8733C74.0963 74.6906 74.2547 74.325 74.3034 74.0448C74.3521 73.7767 74.4374 73.5574 74.4984 73.5574C74.5958 73.5574 75.3635 72.0343 75.7046 71.1205C75.7899 70.889 75.9361 70.6088 76.0336 70.4991C76.1189 70.4016 76.192 70.2432 76.192 70.1579C76.192 69.9508 76.6306 69.829 77.7151 69.7315C81.4313 69.4147 86.9874 68.2815 89.0466 67.4164C89.4487 67.2458 89.8021 67.1118 89.8143 67.0996C89.8386 67.0996 89.6193 67.3799 89.3269 67.721ZM64.0075 69.9021C66.7247 69.9752 69.125 70.0605 69.3443 70.097C69.7342 70.1579 69.7464 70.1823 69.5636 70.3773C69.4662 70.4869 69.2956 70.8281 69.1859 71.1205C69.0763 71.4251 68.9301 71.7175 68.8326 71.7907C68.7473 71.8516 68.6011 72.1196 68.528 72.3755C68.4427 72.6314 68.2965 72.8751 68.199 72.9116C68.1137 72.936 67.9797 73.1553 67.9066 73.3868C67.8213 73.6183 67.6263 73.9473 67.4679 74.1057C67.3095 74.2641 67.1755 74.4591 67.1755 74.52C67.1755 74.6662 66.4322 75.7872 66.286 75.8481C66.2373 75.8725 66.0911 76.104 65.957 76.3598C65.8352 76.6157 65.6402 76.8472 65.5306 76.8838C65.4331 76.9325 65.3478 77.0422 65.3478 77.1518C65.3478 77.2493 65.1894 77.493 64.9823 77.6758C64.7873 77.8707 64.6167 78.09 64.6167 78.1631C64.6167 78.2362 64.5071 78.3337 64.3731 78.3703C64.239 78.4068 64.1294 78.4921 64.1294 78.5652C64.1294 78.6261 63.8613 78.9429 63.5323 79.2719C63.1912 79.6131 62.8622 79.9908 62.7891 80.137C62.716 80.2711 62.5941 80.3807 62.5088 80.3807C62.4235 80.3807 62.2895 80.4904 62.2042 80.6244C62.1189 80.7584 61.9727 80.8681 61.8752 80.8681C61.7778 80.8681 61.6925 80.9412 61.6925 81.0387C61.6925 81.1362 61.5584 81.2458 61.3879 81.2824C61.2173 81.3311 61.0832 81.4408 61.0832 81.5261C61.0832 81.6235 60.9492 81.7332 60.7786 81.7697C60.6081 81.8185 60.474 81.9281 60.474 82.0256C60.474 82.1231 60.4009 82.2084 60.3034 82.2084C60.2181 82.2084 60.0719 82.2937 59.9866 82.3912C59.9135 82.4886 59.4993 82.7323 59.0728 82.9395C58.6464 83.1466 58.2321 83.3903 58.159 83.4878C58.0737 83.5852 57.8909 83.6705 57.7447 83.6705C57.6107 83.6705 57.3792 83.7558 57.2573 83.8533C57.1233 83.9508 56.9283 84.0361 56.8065 84.0361C56.6968 84.0361 56.441 84.1213 56.2582 84.2188C55.7708 84.4747 55.3565 84.4503 55.3565 84.1823C55.3565 84.0726 55.4053 83.5121 55.4784 82.9395C55.5393 82.3668 55.8683 79.3207 56.2095 76.1771C56.5384 73.0213 56.843 70.2676 56.8918 70.0361L56.9527 69.6218L58.0128 69.6949C58.5976 69.7315 61.2904 69.829 64.0075 69.9021Z" fill="white"/>
</g>
<g filter="url(#filter1_d_336_18)">
<path d="M139.102 35.4258L131.367 59H125.137L135.703 30.5625H139.668L139.102 35.4258ZM145.527 59L137.773 35.4258L137.148 30.5625H141.152L151.777 59H145.527ZM145.176 48.4141V53.0039H130.156V48.4141H145.176ZM169.547 46.5195H162.242L162.203 42.4961H168.336C169.417 42.4961 170.302 42.3594 170.992 42.0859C171.682 41.7995 172.197 41.3893 172.535 40.8555C172.887 40.3086 173.062 39.6445 173.062 38.8633C173.062 37.9779 172.893 37.2617 172.555 36.7148C172.229 36.168 171.715 35.7708 171.012 35.5234C170.322 35.276 169.43 35.1523 168.336 35.1523H164.273V59H158.414V30.5625H168.336C169.99 30.5625 171.467 30.7188 172.77 31.0312C174.085 31.3438 175.198 31.819 176.109 32.457C177.021 33.0951 177.717 33.9023 178.199 34.8789C178.681 35.8424 178.922 36.9883 178.922 38.3164C178.922 39.4883 178.655 40.569 178.121 41.5586C177.6 42.5482 176.773 43.3555 175.641 43.9805C174.521 44.6055 173.056 44.9505 171.246 45.0156L169.547 46.5195ZM169.293 59H160.641L162.926 54.4297H169.293C170.322 54.4297 171.161 54.2669 171.812 53.9414C172.464 53.6029 172.945 53.1471 173.258 52.5742C173.57 52.0013 173.727 51.3438 173.727 50.6016C173.727 49.7682 173.583 49.0456 173.297 48.4336C173.023 47.8216 172.581 47.3529 171.969 47.0273C171.357 46.6888 170.549 46.5195 169.547 46.5195H163.902L163.941 42.4961H170.973L172.32 44.0781C174.052 44.0521 175.445 44.3581 176.5 44.9961C177.568 45.6211 178.342 46.4349 178.824 47.4375C179.319 48.4401 179.566 49.5143 179.566 50.6602C179.566 52.4831 179.169 54.0195 178.375 55.2695C177.581 56.5065 176.415 57.4375 174.879 58.0625C173.355 58.6875 171.493 59 169.293 59ZM200.129 30.5625V59H194.289V30.5625H200.129ZM208.879 30.5625V35.1523H185.676V30.5625H208.879ZM239.031 44.1172V45.4648C239.031 47.6263 238.738 49.5664 238.152 51.2852C237.566 53.0039 236.74 54.4688 235.672 55.6797C234.604 56.8776 233.328 57.7956 231.844 58.4336C230.372 59.0716 228.738 59.3906 226.941 59.3906C225.158 59.3906 223.523 59.0716 222.039 58.4336C220.568 57.7956 219.292 56.8776 218.211 55.6797C217.13 54.4688 216.29 53.0039 215.691 51.2852C215.105 49.5664 214.812 47.6263 214.812 45.4648V44.1172C214.812 41.9427 215.105 40.0026 215.691 38.2969C216.277 36.5781 217.104 35.1133 218.172 33.9023C219.253 32.6914 220.529 31.7669 222 31.1289C223.484 30.4909 225.118 30.1719 226.902 30.1719C228.699 30.1719 230.333 30.4909 231.805 31.1289C233.289 31.7669 234.565 32.6914 235.633 33.9023C236.714 35.1133 237.547 36.5781 238.133 38.2969C238.732 40.0026 239.031 41.9427 239.031 44.1172ZM233.113 45.4648V44.0781C233.113 42.5677 232.977 41.2396 232.703 40.0938C232.43 38.9479 232.026 37.9844 231.492 37.2031C230.958 36.4219 230.307 35.8359 229.539 35.4453C228.771 35.0417 227.892 34.8398 226.902 34.8398C225.913 34.8398 225.034 35.0417 224.266 35.4453C223.51 35.8359 222.866 36.4219 222.332 37.2031C221.811 37.9844 221.414 38.9479 221.141 40.0938C220.867 41.2396 220.73 42.5677 220.73 44.0781V45.4648C220.73 46.9622 220.867 48.2904 221.141 49.4492C221.414 50.5951 221.818 51.5651 222.352 52.3594C222.885 53.1406 223.536 53.7331 224.305 54.1367C225.073 54.5404 225.952 54.7422 226.941 54.7422C227.931 54.7422 228.81 54.5404 229.578 54.1367C230.346 53.7331 230.991 53.1406 231.512 52.3594C232.033 51.5651 232.43 50.5951 232.703 49.4492C232.977 48.2904 233.113 46.9622 233.113 45.4648ZM265.922 30.5625V35.1523H253.109V59H247.27V30.5625H265.922ZM290.371 30.5625V35.1523H276.23V30.5625H290.371ZM294.551 30.5625V59H288.691V30.5625H294.551ZM275.488 30.5625H281.328L280.605 44.8398C280.501 46.9753 280.299 48.8307 280 50.4062C279.714 51.9818 279.323 53.3229 278.828 54.4297C278.333 55.5234 277.721 56.4089 276.992 57.0859C276.276 57.75 275.43 58.2383 274.453 58.5508C273.477 58.8503 272.363 59 271.113 59H269.668V54.4297L270.41 54.3711C271.048 54.306 271.608 54.1367 272.09 53.8633C272.572 53.5898 272.982 53.1797 273.32 52.6328C273.672 52.0859 273.958 51.3893 274.18 50.543C274.414 49.6836 274.596 48.6354 274.727 47.3984C274.87 46.1615 274.967 44.7161 275.02 43.0625L275.488 30.5625ZM327.008 44.1172V45.4648C327.008 47.6263 326.715 49.5664 326.129 51.2852C325.543 53.0039 324.716 54.4688 323.648 55.6797C322.581 56.8776 321.305 57.7956 319.82 58.4336C318.349 59.0716 316.715 59.3906 314.918 59.3906C313.134 59.3906 311.5 59.0716 310.016 58.4336C308.544 57.7956 307.268 56.8776 306.188 55.6797C305.107 54.4688 304.267 53.0039 303.668 51.2852C303.082 49.5664 302.789 47.6263 302.789 45.4648V44.1172C302.789 41.9427 303.082 40.0026 303.668 38.2969C304.254 36.5781 305.081 35.1133 306.148 33.9023C307.229 32.6914 308.505 31.7669 309.977 31.1289C311.461 30.4909 313.095 30.1719 314.879 30.1719C316.676 30.1719 318.31 30.4909 319.781 31.1289C321.266 31.7669 322.542 32.6914 323.609 33.9023C324.69 35.1133 325.523 36.5781 326.109 38.2969C326.708 40.0026 327.008 41.9427 327.008 44.1172ZM321.09 45.4648V44.0781C321.09 42.5677 320.953 41.2396 320.68 40.0938C320.406 38.9479 320.003 37.9844 319.469 37.2031C318.935 36.4219 318.284 35.8359 317.516 35.4453C316.747 35.0417 315.868 34.8398 314.879 34.8398C313.889 34.8398 313.01 35.0417 312.242 35.4453C311.487 35.8359 310.842 36.4219 310.309 37.2031C309.788 37.9844 309.391 38.9479 309.117 40.0938C308.844 41.2396 308.707 42.5677 308.707 44.0781V45.4648C308.707 46.9622 308.844 48.2904 309.117 49.4492C309.391 50.5951 309.794 51.5651 310.328 52.3594C310.862 53.1406 311.513 53.7331 312.281 54.1367C313.049 54.5404 313.928 54.7422 314.918 54.7422C315.908 54.7422 316.786 54.5404 317.555 54.1367C318.323 53.7331 318.967 53.1406 319.488 52.3594C320.009 51.5651 320.406 50.5951 320.68 49.4492C320.953 48.2904 321.09 46.9622 321.09 45.4648ZM353.82 30.5625V35.1523H341.027V59H335.188V30.5625H353.82ZM339.016 40.9336H345.656C347.896 40.9336 349.823 41.3047 351.438 42.0469C353.052 42.7891 354.296 43.8307 355.168 45.1719C356.04 46.513 356.477 48.0755 356.477 49.8594C356.477 51.2135 356.229 52.4505 355.734 53.5703C355.24 54.6771 354.517 55.6406 353.566 56.4609C352.629 57.2682 351.496 57.8932 350.168 58.3359C348.84 58.7786 347.336 59 345.656 59H335.188V30.5625H341.066V54.4297H345.656C346.776 54.4297 347.701 54.2214 348.43 53.8047C349.159 53.388 349.706 52.8346 350.07 52.1445C350.448 51.4414 350.637 50.6667 350.637 49.8203C350.637 49.013 350.448 48.2839 350.07 47.6328C349.706 46.9688 349.159 46.4479 348.43 46.0703C347.701 45.6927 346.776 45.5039 345.656 45.5039H339.016V40.9336ZM372.879 48.6875L379.871 30.5625H386.18L376.434 53.4922C376.095 54.2734 375.704 55.0221 375.262 55.7383C374.832 56.4414 374.318 57.0729 373.719 57.6328C373.12 58.1797 372.404 58.6159 371.57 58.9414C370.737 59.2539 369.741 59.4102 368.582 59.4102C368.296 59.4102 367.944 59.4036 367.527 59.3906C367.111 59.3776 366.779 59.3581 366.531 59.332L366.492 54.7617C366.648 54.8008 366.896 54.8268 367.234 54.8398C367.573 54.8398 367.82 54.8398 367.977 54.8398C368.745 54.8398 369.35 54.7292 369.793 54.5078C370.236 54.2865 370.587 53.974 370.848 53.5703C371.121 53.1536 371.362 52.6654 371.57 52.1055L372.879 48.6875ZM368.25 30.5625L374.734 44.6445L376.551 51.1094L372.195 51.1875L361.961 30.5625H368.25ZM409.242 49.5664H415.082C414.965 51.4805 414.438 53.1797 413.5 54.6641C412.576 56.1484 411.28 57.3073 409.613 58.1406C407.96 58.974 405.967 59.3906 403.637 59.3906C401.814 59.3906 400.18 59.0781 398.734 58.4531C397.289 57.8151 396.052 56.9036 395.023 55.7188C394.008 54.5339 393.233 53.1016 392.699 51.4219C392.165 49.7422 391.898 47.8607 391.898 45.7773V43.8047C391.898 41.7214 392.172 39.8398 392.719 38.1602C393.279 36.4674 394.073 35.0286 395.102 33.8438C396.143 32.6589 397.387 31.7474 398.832 31.1094C400.277 30.4714 401.892 30.1523 403.676 30.1523C406.046 30.1523 408.044 30.582 409.672 31.4414C411.312 32.3008 412.582 33.4857 413.48 34.9961C414.392 36.5065 414.939 38.2253 415.121 40.1523H409.262C409.197 39.0065 408.969 38.0365 408.578 37.2422C408.188 36.4349 407.595 35.8294 406.801 35.4258C406.02 35.0091 404.978 34.8008 403.676 34.8008C402.699 34.8008 401.846 34.9831 401.117 35.3477C400.388 35.7122 399.776 36.2656 399.281 37.0078C398.786 37.75 398.415 38.6875 398.168 39.8203C397.934 40.9401 397.816 42.2552 397.816 43.7656V45.7773C397.816 47.2487 397.927 48.5443 398.148 49.6641C398.37 50.7708 398.708 51.7083 399.164 52.4766C399.633 53.2318 400.232 53.8047 400.961 54.1953C401.703 54.5729 402.595 54.7617 403.637 54.7617C404.861 54.7617 405.87 54.5664 406.664 54.1758C407.458 53.7852 408.064 53.2057 408.48 52.4375C408.91 51.6693 409.164 50.7122 409.242 49.5664Z" fill="white"/>
</g>
<path d="M125 69H463.5" stroke="url(#paint0_linear_336_18)" stroke-width="3"/>
<defs>
<filter id="filter0_d_336_18" x="0" y="-0.000488281" width="113.708" height="98.0005" filterUnits="userSpaceOnUse" color-interpolation-filters="sRGB">
<feFlood flood-opacity="0" result="BackgroundImageFix"/>
<feColorMatrix in="SourceAlpha" type="matrix" values="0 0 0 0 0 0 0 0 0 0 0 0 0 0 0 0 0 0 127 0" result="hardAlpha"/>
<feOffset dy="4"/>
<feGaussianBlur stdDeviation="2"/>
<feComposite in2="hardAlpha" operator="out"/>
<feColorMatrix type="matrix" values="0 0 0 0 0 0 0 0 0 0 0 0 0 0 0 0 0 0 0.25 0"/>
<feBlend mode="normal" in2="BackgroundImageFix" result="effect1_dropShadow_336_18"/>
<feBlend mode="normal" in="SourceGraphic" in2="effect1_dropShadow_336_18" result="shape"/>
</filter>
<filter id="filter1_d_336_18" x="121.137" y="30.1523" width="297.984" height="37.2578" filterUnits="userSpaceOnUse" color-interpolation-filters="sRGB">
<feFlood flood-opacity="0" result="BackgroundImageFix"/>
<feColorMatrix in="SourceAlpha" type="matrix" values="0 0 0 0 0 0 0 0 0 0 0 0 0 0 0 0 0 0 127 0" result="hardAlpha"/>
<feOffset dy="4"/>
<feGaussianBlur stdDeviation="2"/>
<feComposite in2="hardAlpha" operator="out"/>
<feColorMatrix type="matrix" values="0 0 0 0 0 0 0 0 0 0 0 0 0 0 0 0 0 0 0.25 0"/>
<feBlend mode="normal" in2="BackgroundImageFix" result="effect1_dropShadow_336_18"/>
<feBlend mode="normal" in="SourceGraphic" in2="effect1_dropShadow_336_18" result="shape"/>
</filter>
<linearGradient id="paint0_linear_336_18" x1="118" y1="69" x2="453.5" y2="69" gradientUnits="userSpaceOnUse">
<stop stop-color="white"/>
<stop offset="1" stop-color="white" stop-opacity="0"/>
</linearGradient>
</defs>
</svg>
