<svg width="35" height="21" viewBox="0 0 35 21" fill="none" xmlns="http://www.w3.org/2000/svg">
<path fill-rule="evenodd" clip-rule="evenodd" d="M34.1969 1.38249C34.4402 0.58558 34.1969 0 33.039 0H29.21C28.2364 0 27.7875 0.505853 27.5442 1.06365C27.5442 1.06365 25.5968 5.72552 22.8384 8.75366C21.946 9.63026 21.5403 9.90924 21.0535 9.90924C20.8101 9.90924 20.445 9.63026 20.445 8.83343V1.38249C20.445 0.426198 20.1753 0 19.3639 0H13.3469C12.7385 0 12.3726 0.44383 12.3726 0.864472C12.3726 1.77102 13.7517 1.98008 13.8939 4.53019V10.0686C13.8939 11.2828 13.6706 11.5031 13.1838 11.5031C11.8858 11.5031 8.72824 6.82037 6.85553 1.46214C6.48853 0.420686 6.12043 0 5.14184 0H1.31282C0.218814 0 0 0.505853 0 1.06365C0 2.05981 1.29812 7.00058 6.04427 13.5351C9.20835 17.9976 13.6663 20.4167 17.7229 20.4167C20.1568 20.4167 20.458 19.8794 20.458 18.954V15.5811C20.458 14.5066 20.6885 14.2921 21.4593 14.2921C22.0271 14.2921 23.0007 14.5711 25.2724 16.7227C27.8686 19.2728 28.2967 20.4167 29.7569 20.4167H33.586C34.6799 20.4167 35.227 19.8794 34.9114 18.8191C34.566 17.7624 33.3266 16.2292 31.6819 14.4117C30.7894 13.3757 29.4506 12.2601 29.0449 11.7021C28.4771 10.9851 28.6394 10.6663 29.0449 10.0288C29.0449 10.0288 33.7101 3.5739 34.1969 1.38249Z" fill="white"/>
</svg>
